# xmcd CD database file
#
# Track frame offsets:
#	180
#	13471
#	31020
#	38009
#	52384
#	70450
#	83611
#	105285
#	116159
#	133783
#	147263
#	160303
#	176605
#
# Disc length: 2605 seconds
#
# Revision: 1
# Processed by: cddbd v1.5.2PL0 Copyright (c) Steve Scherf et al.
# Submitted via: CDex 1.70beta2
#
DISCID=b40a2b0d
DTITLE=Heritage Singers - Country
DYEAR=1900
DGENRE=Country
TTITLE0=When The Saints Go Marching In
TTITLE1=Ten Thousend Angels Cried
TTITLE2=I'll Fly Away
TTITLE3=Going Home
TTITLE4=Without You, I Haven't Got A Prayer
TTITLE5=He Washed My Eyes With Tears
TTITLE6=Will You Love Jesus More
TTITLE7=Search Me Lord
TTITLE8=On The Side Of Angels
TTITLE9=Heaven's Bright Shore
TTITLE10=Healer Of Brocken Hearts
TTITLE11=When You Get Alone With My Heart
TTITLE12=Had It Not Been
EXTD=
EXTT0=
EXTT1=
EXTT2=
EXTT3=
EXTT4=
EXTT5=
EXTT6=
EXTT7=
EXTT8=
EXTT9=
EXTT10=
EXTT11=
EXTT12=
PLAYORDER=
